<svg xmlns="http://www.w3.org/2000/svg" height="512" viewBox="0 0 64 64" width="512" xmlns:v="https://vecta.io/nano"><path d="M14.215 47h-1.22c-1.654 0-3 1.346-3 3v1a1 1 0 0 0 1 1H31a1 1 0 0 0 1-1v-1c0-1.654-1.346-3-3-3h-1.22l-.5-1.996h11.7c1.654 0 3-1.346 3-3V15c0-1.654-1.346-3-3-3H3.003c-1.654 0-3 1.346-3 3v26.984c0 1.654 1.346 3 3 3h11.7zm-1.22 2H29a1 1 0 0 1 1 1H11.995a1 1 0 0 1 1-1zm12.714-2h-9.434l.5-1.996H25.2zM3.003 14h35.98a1 1 0 0 1 1 1v23.984H2.003V15a1 1 0 0 1 1-1zm-1 27.984v-1h19c-.552 0-.994.447-.994 1s.452 1 1.005 1a1 1 0 1 0 0-2h18.96v1a1 1 0 0 1-1 1H3.003a1 1 0 0 1-1-1zM60.997 12h-14c-1.654 0-3 1.346-3 3v34c0 1.654 1.346 3 3 3h14c1.654 0 3-1.346 3-3V15c0-1.655-1.346-3-3-3zm-15 5.996h16v.998h-16zm1-3.996h14a1 1 0 0 1 1 1v.996h-16V15a1 1 0 0 1 1-1zm14 35.98h-14a1 1 0 0 1-1-1V21.004h16V49a1 1 0 0 1-1 1zm-7-16.976c1.654 0 3-1.346 3-3s-1.346-3-3-3-3 1.346-3 3 1.346 3 3 3zm0-4a1 1 0 1 1 0 2 1 1 0 1 1 0-2zm4 10.002h-8a1 1 0 1 0 0 2h8a1 1 0 1 0 0-2zm0 3h-8a1 1 0 1 0 0 2h8a1 1 0 1 0 0-2zm0 3h-8a1 1 0 1 0 0 2h8a1 1 0 1 0 0-2z"/></svg>